<svg xmlns="http://www.w3.org/2000/svg" xmlns:xlink="http://www.w3.org/1999/xlink" width="500" zoomAndPan="magnify" viewBox="0 0 375 374.999991" height="500" preserveAspectRatio="xMidYMid meet" version="1.0"><rect x="-37.5" width="450" fill="#ffffff" y="-37.499999" height="449.999989" fill-opacity="1"/><rect x="-37.5" width="450" fill="#ffffff" y="-37.499999" height="449.999989" fill-opacity="1"/><path fill="#e3671a" d="M 192.375 237.75 L 204.75 229.5 C 209.25 226.5 210.75 220.875 208.875 216 L 208.5 215.25 C 206.625 210.375 201 207.375 195.75 208.5 L 183.75 210.375 C 178.5 211.5 172.875 209.625 169.125 205.875 C 165.375 202.125 163.5 196.5 164.625 191.25 L 166.875 179.25 C 168 174 165 168.75 160.125 166.5 L 159.375 166.125 C 154.5 164.25 148.875 165.75 145.875 170.25 L 138.75 180.375 C 135.75 184.875 130.5 187.5 125.25 187.5 L 124.875 187.5 C 119.625 187.5 114.375 184.875 111.375 180.375 L 104.25 169.875 C 101.25 165.375 95.625 163.875 90.75 165.75 L 90 166.5 C 85.125 168.375 82.125 174 83.25 179.25 L 85.5 191.625 C 86.625 196.875 84.75 202.5 81 206.25 C 77.25 210 71.625 211.875 66.375 210.75 L 55.875 208.5 C 48.75 207 43.5 210 41.25 214.875 L 40.875 215.625 C 39 220.5 40.5 226.125 45 229.125 L 55.125 235.875 C 59.625 238.875 62.25 244.125 62.25 249.375 C 62.25 255 59.625 259.875 55.125 262.875 L 46.125 268.875 C 40.5 272.625 38.625 278.25 40.875 283.5 L 41.25 285 C 43.125 289.875 48.75 292.875 54 291.75 L 66.375 289.5 C 71.625 288.375 77.25 290.25 81 294 C 84.75 297.75 86.625 303.375 85.5 308.625 L 83.25 320.625 C 82.125 326.25 84.75 331.5 90 333.75 L 90.75 334.125 C 95.625 336 101.25 334.5 104.25 330 L 111 319.5 C 114 315 119.25 312.375 124.5 312.375 C 129.75 312.375 135 315 138 319.5 L 144 328.5 C 147.75 334.125 153.375 336 158.625 333.75 L 159.375 333.375 C 164.25 331.5 167.25 325.875 166.125 320.625 L 163.875 308.25 C 162.75 303 164.625 297.375 168.375 293.625 C 172.125 289.875 177.75 288 183 289.125 C 186.75 289.875 191.25 290.625 195.375 291.375 C 200.625 292.5 205.875 289.5 208.125 284.625 L 208.5 283.875 C 210.375 279 208.875 273.375 204.375 270.375 L 196.5 265.125 C 190.875 261.375 187.125 255 186.75 247.875 C 187.125 243.75 189 240 192.375 237.75 Z M 129.75 274.5 C 112.125 277.875 97.125 262.875 100.5 245.25 C 102.375 235.5 110.25 227.625 120 225.75 C 137.625 222.375 152.625 237.75 149.625 255 C 147.75 264.75 139.875 272.625 129.75 274.5 Z M 129.75 274.5 " fill-opacity="1" fill-rule="nonzero"/><path fill="#e3671a" d="M 277.875 112.5 C 277.875 108.75 279.75 105.375 282.75 103.5 L 292.875 96.75 C 297 93.75 298.875 88.5 297 83.625 L 296.25 82.125 C 294.375 77.25 289.125 74.625 284.25 75.75 L 272.625 78 C 268.5 78.75 265.125 77.625 262.5 75 C 259.875 72.375 258.75 68.625 259.5 65.25 L 261.75 53.25 C 262.875 48.375 259.875 43.125 255.375 41.25 L 253.875 40.5 C 249 38.625 243.75 40.125 240.75 44.625 L 234 54.75 C 232.125 57.75 228.75 59.625 225 59.625 C 221.25 59.625 217.875 57.75 216 54.75 L 209.25 45 C 206.25 40.875 201 39 196.125 40.875 L 194.625 41.625 C 189.75 43.5 187.125 48.75 188.25 53.625 L 190.5 65.625 C 191.25 69 190.125 72.75 187.5 75.375 C 184.875 78 181.5 79.125 177.75 78.375 L 165.75 76.125 C 160.875 75 155.625 78 153.75 82.5 L 153 84 C 151.125 88.875 152.625 94.125 157.125 97.125 L 167.25 103.875 C 170.25 105.75 172.125 109.125 172.125 112.875 C 172.125 116.625 170.25 120 167.25 121.875 L 157.5 128.25 C 153.375 131.25 151.5 136.5 153.375 141.375 L 154.125 142.875 C 156 147.75 161.25 150.375 166.125 149.25 L 178.125 147 C 181.5 146.25 185.25 147.375 187.875 150 C 190.5 152.625 191.625 156.375 190.875 159.75 L 188.625 171.375 C 187.5 176.25 190.5 181.5 195 183.375 L 196.5 184.125 C 201.375 186 206.625 184.5 209.625 180 L 216.375 169.875 C 218.25 166.875 221.625 165 225.375 165 C 229.125 165 232.5 166.875 234.375 169.875 L 241.125 180 C 244.125 184.125 249.375 186 254.25 184.125 L 255.75 183.375 C 260.625 181.5 263.25 176.25 262.125 171.375 L 259.875 159.375 C 258.75 156 259.875 152.625 262.5 150 C 265.125 147.375 268.875 146.25 272.25 147 L 283.875 149.25 C 288.75 150.375 294 147.375 295.875 142.875 L 296.625 141.375 C 298.5 136.5 297 131.25 292.5 128.25 L 282.375 121.5 C 279.75 119.625 277.875 116.25 277.875 112.5 Z M 227.625 127.875 C 217.125 129.375 208.125 120.375 209.625 109.875 C 210.75 103.125 216 97.875 222.75 97.125 C 233.25 95.625 242.25 104.625 240.75 115.125 C 239.625 121.5 234 126.75 227.625 127.875 Z M 227.625 127.875 " fill-opacity="1" fill-rule="nonzero"/><path fill="#e3671a" d="M 243.75 261.75 C 247.875 262.875 252.75 262.875 257.625 261.375 C 266.25 258.75 273 251.25 274.5 242.25 C 276.375 231.375 271.5 221.625 263.625 216.375 C 261.375 214.875 260.625 211.875 261.75 209.625 L 270.75 187.5 C 273 182.25 276.75 180.75 279.75 182.625 C 281.625 183.75 283.875 183.375 285.375 182.25 L 301.5 171.375 C 303.75 169.875 306.75 170.25 308.625 172.125 L 315.375 178.875 C 317.25 180.75 317.625 183.75 316.125 186 L 305.25 202.125 C 304.125 204 304.125 206.25 304.875 208.125 C 306.75 211.5 308.25 215.25 309.375 219.375 C 310.125 221.25 311.625 223.125 313.875 223.5 C 318.75 224.625 327.375 226.125 332.625 227.25 C 335.25 227.625 337.125 230.25 337.125 232.875 L 337.125 242.25 C 337.125 244.875 335.25 247.5 332.625 247.875 L 313.875 251.625 C 311.625 252 310.125 253.5 309.375 255.75 C 308.25 259.5 306.75 263.25 304.875 267 C 303.75 268.875 303.75 271.125 305.25 273 C 307.875 277.125 312.75 284.625 316.125 289.125 C 317.625 291.375 317.25 294.375 315.375 296.25 L 308.625 303 C 306.75 304.875 303.75 305.25 301.5 303.75 L 285.375 292.875 C 283.5 291.75 281.25 291.75 279.375 292.5 C 276 294.375 272.25 295.875 268.125 297 C 265.875 297.75 264.375 299.25 264 301.5 C 262.875 306.375 261.375 315 260.25 320.25 C 259.875 322.875 257.25 324.75 254.625 324.75 L 245.25 324.75 C 242.625 324.75 240 322.875 239.625 320.25 L 235.875 301.5 C 235.5 299.625 234 297.75 232.125 297.375 C 231 297 230.25 296.625 229.125 296.25 C 226.125 295.125 224.625 291.375 226.125 288.375 C 229.125 282 234.375 271.125 237 264.75 C 238.5 262.5 241.125 261 243.75 261.75 Z M 243.75 261.75 " fill-opacity="1" fill-rule="nonzero"/></svg>